<?xml version="1.0" standalone="no"?>
<!DOCTYPE svg PUBLIC "-//W3C//DTD SVG 20010904//EN"
 "http://www.w3.org/TR/2001/REC-SVG-20010904/DTD/svg10.dtd">
<svg version="1.0" xmlns="http://www.w3.org/2000/svg"
 width="720.000000pt" height="720.000000pt" viewBox="0 0 720.000000 720.000000"
 preserveAspectRatio="xMidYMid meet">

<g transform="translate(0.000000,720.000000) scale(0.100000,-0.100000)"
fill="#000000" stroke="none">
<path d="M3151 6555 c-205 -46 -365 -197 -415 -392 -42 -160 9 -470 79 -481
13 -2 35 -30 63 -81 55 -100 137 -185 209 -218 48 -22 65 -25 137 -21 124 6
178 39 352 213 120 120 145 151 176 215 59 123 72 233 43 358 -43 182 -193
342 -372 398 -71 22 -197 26 -272 9z m106 -465 c-14 -11 -44 -29 -67 -39 -38
-17 -39 -19 -18 -25 80 -21 259 4 349 49 68 33 75 21 53 -87 -17 -81 -15 -135
6 -168 7 -12 12 -11 31 5 l22 20 -7 -40 c-10 -55 -40 -119 -76 -165 -17 -21
-28 -45 -24 -53 8 -21 -98 -122 -161 -152 -118 -58 -229 -54 -318 11 -114 83
-239 324 -236 453 1 38 3 41 8 18 l6 -29 21 24 c12 12 29 37 39 54 15 27 25
32 71 38 53 6 181 47 264 85 57 26 69 26 37 1z"/>
<path d="M2960 5290 c0 -5 -15 -10 -34 -10 -102 0 -171 -138 -190 -380 -3 -41
-24 -284 -47 -540 -59 -677 -54 -771 46 -858 34 -30 48 -36 105 -45 14 -3
-189 -5 -452 -6 l-476 -1 -24 73 -25 72 -63 3 c-48 2 -61 0 -58 -10 3 -7 18
-51 33 -97 l28 -84 -22 -44 c-41 -84 -16 -171 61 -217 l43 -26 -243 0 c-240 0
-243 0 -265 -23 -19 -20 -29 -22 -82 -18 l-60 5 46 6 47 5 -82 250 -82 250
-63 3 c-49 2 -62 0 -59 -10 3 -7 43 -126 88 -265 52 -157 88 -249 94 -245 6 3
1 -7 -12 -22 -21 -27 -22 -38 -22 -191 0 -177 3 -185 61 -200 l26 -7 -23 -49
c-13 -27 -35 -87 -49 -134 -25 -86 -51 -284 -41 -310 4 -11 24 -15 81 -15 41
0 75 -2 75 -4 0 -3 -22 -35 -50 -71 -220 -291 -239 -710 -44 -1025 154 -251
396 -401 706 -440 78 -10 109 -9 192 4 382 62 665 305 772 661 23 78 27 109
28 232 0 79 1 143 2 143 0 0 31 -15 70 -34 193 -95 274 -106 806 -106 l428 0
0 -35 0 -35 -339 0 -340 0 -20 -26 c-27 -34 -27 -64 -1 -92 21 -22 24 -22 364
-22 l344 0 16 -25 c43 -66 132 -70 185 -9 30 34 31 37 31 139 l0 105 268 0
c147 0 276 3 288 6 20 5 21 1 27 -93 14 -222 110 -430 269 -578 146 -137 295
-205 515 -235 95 -13 239 6 356 45 224 76 432 277 518 499 78 201 79 424 3
625 -18 46 -21 67 -13 72 18 11 2 96 -31 165 -91 188 -357 326 -670 347 -55 3
-55 3 -71 48 l-17 44 -114 5 c-76 3 -121 10 -132 19 -13 11 -16 35 -16 151 0
157 1 160 79 168 l48 4 -112 287 c-188 480 -192 488 -239 513 -10 6 -50 13
-88 17 l-69 6 -2 440 -2 440 -60 -3 c-80 -4 -208 -35 -280 -67 -32 -14 -59
-24 -61 -22 -1 1 -32 80 -68 175 -36 95 -76 193 -90 216 -53 91 -167 166 -251
166 -17 0 -25 9 -33 38 -25 81 -133 166 -222 174 l-35 3 0 -280 0 -280 35 3
c54 5 136 49 174 94 36 41 66 113 66 155 0 26 8 27 63 12 46 -13 110 -68 142
-123 13 -23 53 -121 90 -219 l66 -178 -32 -27 c-41 -34 -78 -72 -89 -93 -8
-13 -1 -20 36 -34 73 -28 157 -90 183 -135 27 -48 31 -124 7 -148 -22 -22 -63
-2 -72 35 -14 64 -28 86 -68 104 -23 10 -56 19 -73 19 -43 0 -111 -28 -123
-51 -15 -27 -12 -106 5 -139 19 -37 71 -76 114 -85 19 -4 60 -27 92 -52 55
-43 58 -48 74 -116 63 -279 121 -589 185 -997 55 -352 54 -488 -6 -616 l-24
-51 25 -44 c40 -70 36 -79 -35 -79 -53 0 -60 -2 -60 -20 0 -20 -7 -20 -410
-20 -403 0 -410 0 -410 -20 0 -19 -7 -20 -175 -20 -121 0 -200 5 -253 16 -261
53 -418 246 -468 577 -26 166 -10 523 32 718 4 22 13 28 42 34 56 10 98 41
121 89 26 53 26 89 1 140 -20 42 -73 86 -103 86 -9 0 -17 3 -17 8 0 6 401 4
408 -3 2 -1 50 -128 108 -281 58 -154 157 -415 220 -581 63 -166 114 -304 114
-306 0 -3 -9 -7 -21 -10 -12 -3 -19 -12 -17 -19 4 -10 61 -14 267 -16 244 -2
263 -1 267 15 4 14 14 17 47 15 45 -4 85 17 73 36 -4 7 -18 12 -31 12 -26 0
-7 -53 -362 1009 -149 442 -170 498 -202 534 -68 75 -72 76 -466 77 -192 0
-350 2 -352 4 -2 2 12 123 32 269 19 146 35 276 35 289 0 21 -13 29 -105 67
-58 24 -105 47 -105 52 0 4 32 69 72 143 l71 135 58 -29 57 -29 6 52 c28 251
10 334 -78 353 -17 3 -39 13 -48 21 -17 15 -38 10 -38 -9 0 -33 -43 -96 -79
-116 -102 -58 -231 16 -231 132 0 29 -4 36 -20 36 -11 0 -20 -4 -20 -10z
m-781 -3365 c165 -74 261 -220 261 -395 0 -278 -257 -482 -529 -419 -124 28
-232 117 -290 239 -34 71 -36 80 -36 180 0 97 2 110 32 173 56 117 161 208
282 243 76 22 205 12 280 -21z m3926 -104 c72 -42 131 -105 168 -180 30 -62
32 -72 32 -176 0 -100 -3 -115 -28 -165 -37 -76 -76 -121 -142 -164 -258 -172
-601 -4 -622 303 -9 130 35 241 133 331 76 70 108 80 269 80 136 0 141 -1 190
-29z"/>
<path d="M1950 1761 c-110 -34 -174 -119 -174 -231 0 -78 24 -131 84 -182 96
-83 223 -76 315 16 101 102 101 230 0 332 -65 65 -146 89 -225 65z"/>
<path d="M5830 1677 c-48 -15 -113 -83 -128 -133 -47 -157 50 -294 208 -294
130 0 220 90 220 220 0 158 -143 257 -300 207z"/>
<path d="M4665 2210 c-11 -19 6 -30 46 -30 32 0 39 3 39 20 0 17 -7 20 -39 20
-22 0 -43 -4 -46 -10z"/>
<path d="M4545 2170 c-11 -19 6 -30 46 -30 32 0 39 3 39 20 0 17 -7 20 -39 20
-22 0 -43 -4 -46 -10z"/>
<path d="M4665 2150 c-12 -19 17 -41 49 -38 23 2 32 9 34 26 3 20 -1 22 -37
22 -22 0 -43 -5 -46 -10z"/>
<path d="M4545 2110 c-11 -19 6 -30 46 -30 32 0 39 3 39 20 0 17 -7 20 -39 20
-22 0 -43 -4 -46 -10z"/>
<path d="M4692 2075 c-11 -13 -22 -22 -25 -18 -3 3 -16 -15 -29 -41 -17 -35
-19 -49 -10 -58 16 -16 38 4 52 48 6 19 17 34 23 34 7 1 23 10 36 21 21 17 22
22 10 30 -23 14 -36 11 -57 -16z"/>
<path d="M4762 2065 c-6 -14 -18 -25 -25 -25 -18 0 -52 -74 -44 -94 11 -28 27
-17 47 29 11 25 24 45 30 45 14 0 13 -16 -5 -51 -9 -16 -13 -34 -10 -39 13
-21 37 -9 51 25 10 24 19 33 29 29 10 -4 20 5 30 30 20 47 19 56 -5 56 -12 0
-26 -12 -35 -31 -20 -38 -31 -31 -17 10 6 16 8 32 5 35 -14 14 -41 4 -51 -19z"/>
<path d="M4576 2045 c-18 -14 -16 -45 2 -45 13 0 62 40 62 51 0 14 -43 10 -64
-6z"/>
<path d="M4887 2013 c-27 -70 9 -89 43 -23 20 39 20 39 1 50 -27 14 -27 14
-44 -27z"/>
</g>
</svg>
